<?xml version="1.0" encoding="UTF-8"?>
<?xml-stylesheet href="SVGStyle.css" type="text/css"?><svg xmlns="http://www.w3.org/2000/svg" version="1.2" baseProfile="tiny" xml:space="preserve" style="shape-rendering:geometricPrecision; fill-rule:evenodd;" width="2.64mm" height="7.37mm" viewBox="-1.36 -7.21 2.64 7.37">
  <title>LIGHTS13</title>
  <desc>light flare, white or yellow</desc>
  <metadata>
    <iho:S100SVG xmlns:iho="http://www.iho.int/SVGMetadata">
      <iho:Description iho:publisher="IHB" iho:creationDate="2014-06-09" iho:source="S52Preslib4.0" iho:format="S100SVG" iho:version="0.1"/>
    </iho:S100SVG>
  </metadata>
  <rect stroke="black" stroke-width="0.32" display="none" fill="none" x="-1.2" y="-7.05" height="7.05" width="2.32"/>
  <rect stroke="blue" stroke-width="0.32" display="none" fill="none" x="-1.2" y="-7.05" height="7.05" width="2.32"/>
  <path d=" M 0,0 L -1.2,-5.63 L -1.2,-5.85 L -1.2,-6.23 L -1.05,-6.6 L -0.83,-6.75 L -0.53,-6.98 L -0.08,-7.05 L 0.3,-6.98 L 0.6,-6.9 L 0.9,-6.68 L 1.05,-6.3 L 1.12,-6 L 1.12,-5.7 L 0,0 Z"  fill="#E1E139" fill-opacity="0.5"/>
  <path d=" M 0,0 L -1.2,-5.63 L -1.2,-5.85 L -1.2,-6.23 L -1.05,-6.6 L -0.83,-6.75 L -0.53,-6.98 L -0.08,-7.05 L 0.3,-6.98 L 0.6,-6.9 L 0.9,-6.68 L 1.05,-6.3 L 1.12,-6 L 1.12,-5.7 L 0,0" stroke-linecap="round" stroke-linejoin="round" fill="none" stroke="#000000" stroke-width="0.32"/>
  <circle stroke="red" stroke-width="0.64" display="none" fill="none" cx="0" cy="0" r="1"/>
</svg>
